<?xml version="1.0" encoding="UTF-8"?>
<!-- Generator: visioncortex VTracer 0.6.3 -->
<svg version="1.1" xmlns="http://www.w3.org/2000/svg" width="64" height="64">
<path d="M0 0 C0.99 0.33 1.98 0.66 3 1 C2.67 7.93 2.34 14.86 2 22 C3.32 21.34 4.64 20.68 6 20 C9.06 19.94 9.06 19.94 12 21 C14.16 24.87 15.34 28.63 16 33 C17.65 33.33 19.3 33.66 21 34 C20.67 34.99 20.34 35.98 20 37 C17.69 37.25 17.69 37.25 15 37 C11.35 33.77 10.36 28.53 9 24 C7.35 24 5.7 24 4 24 C3.87 24.74 3.73 25.47 3.6 26.23 C3.42 27.21 3.24 28.18 3.06 29.19 C2.8 30.63 2.8 30.63 2.54 32.11 C2.05 34.74 1.53 37.37 1 40 C0.34 40 -0.32 40 -1 40 C-1 39.01 -1 38.02 -1 37 C-2.09 36.71 -3.19 36.42 -4.31 36.12 C-8 35 -8 35 -11 33 C-11.99 33.99 -12.98 34.98 -14 36 C-14.99 35.67 -15.98 35.34 -17 35 C-15.02 32.03 -15.02 32.03 -13 29 C-13.99 27.35 -14.98 25.7 -16 24 C-12 24 -12 24 -9 26 C-8.34 24.02 -7.68 22.04 -7 20 C-6.34 20 -5.68 20 -5 20 C-4.71 27.43 -4.71 27.43 -7 31 C-5.68 31.66 -4.36 32.32 -3 33 C-2.13 29.13 -1.74 25.35 -1.46 21.39 C-1.38 20.14 -1.29 18.89 -1.2 17.61 C-1.11 16.31 -1.03 15.02 -0.94 13.69 C-0.85 12.37 -0.76 11.06 -0.66 9.71 C-0.44 6.47 -0.22 3.24 0 0 Z " fill="#181818" transform="translate(31,9)"/>
<path d="M0 0 C0.33 0.99 0.66 1.98 1 3 C0.67 3.66 0.34 4.32 0 5 C1.98 5.99 3.96 6.98 6 8 C5.34 8.66 4.68 9.32 4 10 C1.56 9.88 1.56 9.88 -1 9 C-2.81 6.94 -2.81 6.94 -4 5 C-3.34 5 -2.68 5 -2 5 C-1.34 3.35 -0.68 1.7 0 0 Z " fill="#282627" transform="translate(24,35)"/>
<path d="M0 0 C2 3 2 3 2 7 C2.66 7.33 3.32 7.66 4 8 C3.67 9.32 3.34 10.64 3 12 C2.34 12 1.68 12 1 12 C1 11.01 1 10.02 1 9 C0.34 9 -0.32 9 -1 9 C-0.67 6.03 -0.34 3.06 0 0 Z " fill="#080A09" transform="translate(29,37)"/>
<path d="M0 0 C0.99 0.33 1.98 0.66 3 1 C2.67 2.98 2.34 4.96 2 7 C1.34 6.67 0.68 6.34 0 6 C0 4.02 0 2.04 0 0 Z " fill="#2E2A2B" transform="translate(31,9)"/>
</svg>
